<?xml version="1.0"?>
<!-- Generated by SVGo -->
<svg width="405" height="405"
     data-fen="6R1/8/8/8/8/K1R5/8/k6q w - - 0 1"
     onmouseover='this.style.cursor="pointer"'
     onclick='navigator.clipboard.writeText("6R1/8/8/8/8/K1R5/8/k6q w - - 0 1"); return false'
     xmlns="http://www.w3.org/2000/svg"
     xmlns:xlink="http://www.w3.org/1999/xlink">
<rect x="0" y="0" width="360" height="360" />
<rect x="0" y="0" width="45" height="45" style="fill: #ebd1a6" />
<text x="2" y="11" style="font-size:11px;fill: #a57551" >8</text>
<rect x="45" y="0" width="45" height="45" style="fill: #a57551" />
<rect x="90" y="0" width="45" height="45" style="fill: #ebd1a6" />
<rect x="135" y="0" width="45" height="45" style="fill: #a57551" />
<rect x="180" y="0" width="45" height="45" style="fill: #ebd1a6" />
<rect x="225" y="0" width="45" height="45" style="fill: #a57551" />
<rect x="270" y="0" width="45" height="45" style="fill: #ebd1a6" />
<svg  width="360" height="360" viewBox="-270 0 360 360">
  <g style="opacity:1; fill:#ffffff; fill-opacity:1; fill-rule:evenodd; stroke:#000000; stroke-width:1.5; stroke-linecap:round;stroke-linejoin:round;stroke-miterlimit:4; stroke-dasharray:none; stroke-opacity:1;">
    <path
      d="M 9,39 L 36,39 L 36,36 L 9,36 L 9,39 z "
      style="stroke-linecap:butt;" />
    <path
      d="M 12,36 L 12,32 L 33,32 L 33,36 L 12,36 z "
      style="stroke-linecap:butt;" />
    <path
      d="M 11,14 L 11,9 L 15,9 L 15,11 L 20,11 L 20,9 L 25,9 L 25,11 L 30,11 L 30,9 L 34,9 L 34,14"
      style="stroke-linecap:butt;" />
    <path
      d="M 34,14 L 31,17 L 14,17 L 11,14" />
    <path
      d="M 31,17 L 31,29.5 L 14,29.5 L 14,17"
      style="stroke-linecap:butt; stroke-linejoin:miter;" />
    <path
      d="M 31,29.5 L 32.5,32 L 12.5,32 L 14,29.5" />
    <path
      d="M 11,14 L 34,14"
      style="fill:none; stroke:#000000; stroke-linejoin:miter;" />
  </g>
</svg>
<rect x="315" y="0" width="45" height="45" style="fill: #a57551" />
<rect x="0" y="45" width="45" height="45" style="fill: #a57551" />
<text x="2" y="56" style="font-size:11px;fill: #ebd1a6" >7</text>
<rect x="45" y="45" width="45" height="45" style="fill: #ebd1a6" />
<rect x="90" y="45" width="45" height="45" style="fill: #a57551" />
<rect x="135" y="45" width="45" height="45" style="fill: #ebd1a6" />
<rect x="180" y="45" width="45" height="45" style="fill: #a57551" />
<rect x="225" y="45" width="45" height="45" style="fill: #ebd1a6" />
<rect x="270" y="45" width="45" height="45" style="fill: #a57551" />
<rect x="315" y="45" width="45" height="45" style="fill: #ebd1a6" />
<rect x="0" y="90" width="45" height="45" style="fill: #ebd1a6" />
<text x="2" y="101" style="font-size:11px;fill: #a57551" >6</text>
<rect x="45" y="90" width="45" height="45" style="fill: #a57551" />
<rect x="90" y="90" width="45" height="45" style="fill: #ebd1a6" />
<rect x="135" y="90" width="45" height="45" style="fill: #a57551" />
<rect x="180" y="90" width="45" height="45" style="fill: #ebd1a6" />
<rect x="225" y="90" width="45" height="45" style="fill: #a57551" />
<rect x="270" y="90" width="45" height="45" style="fill: #ebd1a6" />
<rect x="315" y="90" width="45" height="45" style="fill: #a57551" />
<rect x="0" y="135" width="45" height="45" style="fill: #a57551" />
<text x="2" y="146" style="font-size:11px;fill: #ebd1a6" >5</text>
<rect x="45" y="135" width="45" height="45" style="fill: #ebd1a6" />
<rect x="90" y="135" width="45" height="45" style="fill: #a57551" />
<rect x="135" y="135" width="45" height="45" style="fill: #ebd1a6" />
<rect x="180" y="135" width="45" height="45" style="fill: #a57551" />
<rect x="225" y="135" width="45" height="45" style="fill: #ebd1a6" />
<rect x="270" y="135" width="45" height="45" style="fill: #a57551" />
<rect x="315" y="135" width="45" height="45" style="fill: #ebd1a6" />
<rect x="0" y="180" width="45" height="45" style="fill: #ebd1a6" />
<text x="2" y="191" style="font-size:11px;fill: #a57551" >4</text>
<rect x="45" y="180" width="45" height="45" style="fill: #a57551" />
<rect x="90" y="180" width="45" height="45" style="fill: #ebd1a6" />
<rect x="135" y="180" width="45" height="45" style="fill: #a57551" />
<rect x="180" y="180" width="45" height="45" style="fill: #ebd1a6" />
<rect x="225" y="180" width="45" height="45" style="fill: #a57551" />
<rect x="270" y="180" width="45" height="45" style="fill: #ebd1a6" />
<rect x="315" y="180" width="45" height="45" style="fill: #a57551" />
<rect x="0" y="225" width="45" height="45" style="fill: #a57551" />
<svg  width="360" height="360" viewBox="0 -225 360 360">
  <g style="fill:none; fill-opacity:1; fill-rule:evenodd; stroke:#000000; stroke-width:1.5; stroke-linecap:round;stroke-linejoin:round;stroke-miterlimit:4; stroke-dasharray:none; stroke-opacity:1;">
    <path
      d="M 22.5,11.63 L 22.5,6"
      style="fill:none; stroke:#000000; stroke-linejoin:miter;" />
    <path
      d="M 20,8 L 25,8"
      style="fill:none; stroke:#000000; stroke-linejoin:miter;" />
    <path
      d="M 22.5,25 C 22.5,25 27,17.5 25.5,14.5 C 25.5,14.5 24.5,12 22.5,12 C 20.5,12 19.5,14.5 19.5,14.5 C 18,17.5 22.5,25 22.5,25"
      style="fill:#ffffff; stroke:#000000; stroke-linecap:butt; stroke-linejoin:miter;" />
    <path
      d="M 11.5,37 C 17,40.5 27,40.5 32.5,37 L 32.5,30 C 32.5,30 41.5,25.5 38.5,19.5 C 34.5,13 25,16 22.5,23.5 L 22.5,27 L 22.5,23.5 C 19,16 9.5,13 6.5,19.5 C 3.5,25.5 11.5,29.5 11.5,29.5 L 11.5,37 z "
      style="fill:#ffffff; stroke:#000000;" />
    <path
      d="M 11.5,30 C 17,27 27,27 32.5,30"
      style="fill:none; stroke:#000000;" />
    <path
      d="M 11.5,33.5 C 17,30.5 27,30.5 32.5,33.5"
      style="fill:none; stroke:#000000;" />
    <path
      d="M 11.5,37 C 17,34 27,34 32.5,37"
      style="fill:none; stroke:#000000;" />
  </g>
</svg>
<text x="2" y="236" style="font-size:11px;fill: #ebd1a6" >3</text>
<rect x="45" y="225" width="45" height="45" style="fill: #ebd1a6" />
<rect x="90" y="225" width="45" height="45" style="fill: #a57551" />
<svg  width="360" height="360" viewBox="-90 -225 360 360">
  <g style="opacity:1; fill:#ffffff; fill-opacity:1; fill-rule:evenodd; stroke:#000000; stroke-width:1.5; stroke-linecap:round;stroke-linejoin:round;stroke-miterlimit:4; stroke-dasharray:none; stroke-opacity:1;">
    <path
      d="M 9,39 L 36,39 L 36,36 L 9,36 L 9,39 z "
      style="stroke-linecap:butt;" />
    <path
      d="M 12,36 L 12,32 L 33,32 L 33,36 L 12,36 z "
      style="stroke-linecap:butt;" />
    <path
      d="M 11,14 L 11,9 L 15,9 L 15,11 L 20,11 L 20,9 L 25,9 L 25,11 L 30,11 L 30,9 L 34,9 L 34,14"
      style="stroke-linecap:butt;" />
    <path
      d="M 34,14 L 31,17 L 14,17 L 11,14" />
    <path
      d="M 31,17 L 31,29.5 L 14,29.5 L 14,17"
      style="stroke-linecap:butt; stroke-linejoin:miter;" />
    <path
      d="M 31,29.5 L 32.5,32 L 12.5,32 L 14,29.5" />
    <path
      d="M 11,14 L 34,14"
      style="fill:none; stroke:#000000; stroke-linejoin:miter;" />
  </g>
</svg>
<rect x="135" y="225" width="45" height="45" style="fill: #ebd1a6" />
<rect x="180" y="225" width="45" height="45" style="fill: #a57551" />
<rect x="225" y="225" width="45" height="45" style="fill: #ebd1a6" />
<rect x="270" y="225" width="45" height="45" style="fill: #a57551" />
<rect x="315" y="225" width="45" height="45" style="fill: #ebd1a6" />
<rect x="0" y="270" width="45" height="45" style="fill: #ebd1a6" />
<text x="2" y="281" style="font-size:11px;fill: #a57551" >2</text>
<rect x="45" y="270" width="45" height="45" style="fill: #a57551" />
<rect x="90" y="270" width="45" height="45" style="fill: #ebd1a6" />
<rect x="135" y="270" width="45" height="45" style="fill: #a57551" />
<rect x="180" y="270" width="45" height="45" style="fill: #ebd1a6" />
<rect x="225" y="270" width="45" height="45" style="fill: #a57551" />
<rect x="270" y="270" width="45" height="45" style="fill: #ebd1a6" />
<rect x="315" y="270" width="45" height="45" style="fill: #a57551" />
<rect x="0" y="315" width="45" height="45" style="fill: #a57551" />
<svg  width="360" height="360" viewBox="0 -315 360 360">
  <g style="fill:none; fill-opacity:1; fill-rule:evenodd; stroke:#000000; stroke-width:1.5; stroke-linecap:round;stroke-linejoin:round;stroke-miterlimit:4; stroke-dasharray:none; stroke-opacity:1;">
    <path
       d="M 22.5,11.63 L 22.5,6"
       style="fill:none; stroke:#000000; stroke-linejoin:miter;"
       id="path6570" />
    <path
       d="M 22.5,25 C 22.5,25 27,17.5 25.5,14.5 C 25.5,14.5 24.5,12 22.5,12 C 20.5,12 19.5,14.5 19.5,14.5 C 18,17.5 22.5,25 22.5,25"
       style="fill:#000000;fill-opacity:1; stroke-linecap:butt; stroke-linejoin:miter;" />
    <path
       d="M 11.5,37 C 17,40.5 27,40.5 32.5,37 L 32.5,30 C 32.5,30 41.5,25.5 38.5,19.5 C 34.5,13 25,16 22.5,23.5 L 22.5,27 L 22.5,23.5 C 19,16 9.5,13 6.5,19.5 C 3.5,25.5 11.5,29.5 11.5,29.5 L 11.5,37 z "
       style="fill:#000000; stroke:#000000;" />
    <path
       d="M 20,8 L 25,8"
       style="fill:none; stroke:#000000; stroke-linejoin:miter;" />
    <path
       d="M 32,29.5 C 32,29.5 40.5,25.5 38.03,19.85 C 34.15,14 25,18 22.5,24.5 L 22.51,26.6 L 22.5,24.5 C 20,18 9.906,14 6.997,19.85 C 4.5,25.5 11.85,28.85 11.85,28.85"
       style="fill:none; stroke:#ffffff;" />
    <path
       d="M 11.5,30 C 17,27 27,27 32.5,30 M 11.5,33.5 C 17,30.5 27,30.5 32.5,33.5 M 11.5,37 C 17,34 27,34 32.5,37"
       style="fill:none; stroke:#ffffff;" />
  </g>
</svg>
<text x="2" y="326" style="font-size:11px;fill: #ebd1a6" >1</text>
<text x="42" y="357" style="text-anchor:end;font-size:11px;fill: #ebd1a6" >a</text>
<rect x="45" y="315" width="45" height="45" style="fill: #ebd1a6" />
<text x="87" y="357" style="text-anchor:end;font-size:11px;fill: #a57551" >b</text>
<rect x="90" y="315" width="45" height="45" style="fill: #a57551" />
<text x="132" y="357" style="text-anchor:end;font-size:11px;fill: #ebd1a6" >c</text>
<rect x="135" y="315" width="45" height="45" style="fill: #ebd1a6" />
<text x="177" y="357" style="text-anchor:end;font-size:11px;fill: #a57551" >d</text>
<rect x="180" y="315" width="45" height="45" style="fill: #a57551" />
<text x="222" y="357" style="text-anchor:end;font-size:11px;fill: #ebd1a6" >e</text>
<rect x="225" y="315" width="45" height="45" style="fill: #ebd1a6" />
<text x="267" y="357" style="text-anchor:end;font-size:11px;fill: #a57551" >f</text>
<rect x="270" y="315" width="45" height="45" style="fill: #a57551" />
<text x="312" y="357" style="text-anchor:end;font-size:11px;fill: #ebd1a6" >g</text>
<rect x="315" y="315" width="45" height="45" style="fill: #ebd1a6" />
<svg  width="360" height="360" viewBox="-315 -315 360 360">
  <g style="opacity:1; fill:000000; fill-opacity:1; fill-rule:evenodd; stroke:#000000; stroke-width:1.5; stroke-linecap:round;stroke-linejoin:round;stroke-miterlimit:4; stroke-dasharray:none; stroke-opacity:1;">
    <g style="fill:#000000; stroke:none;">
      <circle cx="6"    cy="12" r="2.75" />
      <circle cx="14"   cy="9"  r="2.75" />
      <circle cx="22.5" cy="8"  r="2.75" />
      <circle cx="31"   cy="9"  r="2.75" />
      <circle cx="39"   cy="12" r="2.75" />
    </g>
    <path
       d="M 9,26 C 17.5,24.5 30,24.5 36,26 L 38.5,13.5 L 31,25 L 30.7,10.9 L 25.5,24.5 L 22.5,10 L 19.5,24.5 L 14.3,10.9 L 14,25 L 6.5,13.5 L 9,26 z"
       style="stroke-linecap:butt; stroke:#000000;" />
    <path
       d="M 9,26 C 9,28 10.5,28 11.5,30 C 12.5,31.5 12.5,31 12,33.5 C 10.5,34.5 10.5,36 10.5,36 C 9,37.5 11,38.5 11,38.5 C 17.5,39.5 27.5,39.5 34,38.5 C 34,38.5 35.5,37.5 34,36 C 34,36 34.5,34.5 33,33.5 C 32.5,31 32.5,31.5 33.5,30 C 34.5,28 36,28 36,26 C 27.5,24.5 17.5,24.5 9,26 z"
       style="stroke-linecap:butt;" />
    <path
       d="M 11,38.5 A 35,35 1 0 0 34,38.5"
       style="fill:none; stroke:#000000; stroke-linecap:butt;" />
    <path
       d="M 11,29 A 35,35 1 0 1 34,29"
       style="fill:none; stroke:#ffffff;" />
    <path
       d="M 12.5,31.5 L 32.5,31.5"
       style="fill:none; stroke:#ffffff;" />
    <path
       d="M 11.5,34.5 A 35,35 1 0 0 33.5,34.5"
       style="fill:none; stroke:#ffffff;" />
    <path
       d="M 10.5,37.5 A 35,35 1 0 0 34.5,37.5"
       style="fill:none; stroke:#ffffff;" />
  </g>
</svg>
<text x="357" y="357" style="text-anchor:end;font-size:11px;fill: #a57551" >h</text>
<polygon points="367,353 382,308 397,353 367,353" fill="white" stroke-width="2" stroke="black" />
</svg>